<?xml version="1.0" encoding="UTF-8"?>
<svg version="1.1" viewBox="0 0 2048 658" width="1280" height="1280" xmlns="http://www.w3.org/2000/svg">
<path transform="translate(1019,203)" d="m0 0h9l6 4 2 4 1 22-1 224-3 6-4 3h-10l-5-4-2-4-1-17-1-7-9 10-13 10-12 6-17 5-17 2h-12l-17-2-15-4-16-8-11-8-7-7-9-14-5-11-4-17v-30l4-17 7-16 7-10 6-7 11-9 15-8 16-5 13-2h25l17 3 16 7 14 10 13 13 1-106 2-10 4-5zm-89 110-16 3-12 5-12 9-9 11-6 12-4 16v25l4 15 6 12 8 9 11 7 11 5 13 3 10 1h10l16-2 13-4 12-6 11-9 8-11 5-12 2-10v-26l-4-13-6-11-6-8-13-10-14-7-17-4z" fill="#B1B1B1"/>
<path transform="translate(1139,292)" d="m0 0h30l17 3 15 5 17 9 12 11 8 11 5 14 1 4v18l-4 9-5 7-8 4-4 1-136 1 2 15 4 11 6 9 8 8 16 8 16 4 10 1h16l19-3 13-4 15-9 11-7 7 1 6 7v5l-9 10-8 6-16 8-17 5-10 2-13 1h-17l-17-2-15-4-12-5-17-11-11-14-7-14-4-13-2-12v-25l3-16 6-16 7-11 10-11 13-9 12-6 13-4zm5 21-16 3-13 5-13 9-8 11-5 12-1 4v11l1 1h121l6-3 3-5v-11l-4-11-9-10-14-9-16-5-11-2z" fill="#B0B0B0"/>
<path transform="translate(1509,292)" d="m0 0h29l17 3 15 6 13 9 8 9 6 11 3 13 1 10v102l-4 10-2 1h-11l-7-6-1-3-1-13-7 6-13 8-13 5-14 3-20 1-14-1-17-4-16-8-10-9-6-10-4-11-1-4v-17l4-14 6-9 6-7 10-7 14-6 12-3 9-1h28l13 2 15 5 13 8 4 3v-29l-3-10-9-10-8-6-14-4-8-1h-17l-14 2-17 5-21 10h-9l-4-5-1-8 4-6 14-8 14-6 21-5zm-7 84-14 3-11 6-8 9-3 8-1 14 3 10 4 6 7 6 10 5 14 3h26l18-4 14-7 9-8 5-9v-16l-4-8-4-5-11-7-13-4-11-2z" fill="#B1B0B0"/>
<path transform="translate(1779,203)" d="m0 0h9l6 5 2 6v110l8-7 7-7 11-7 12-6 14-4 6-1h24l18 4 12 6 10 9 7 9 6 13 3 15 1 16v81l-1 14-6 7h-12l-4-4-2-5-1-99-2-14-4-11-7-9-8-5-11-4-6-1h-16l-16 3-12 5-13 10-8 10-5 11-3 11-1 8-1 84-3 7-3 3-8 1-6-3-3-3-2-7v-241l2-5z" fill="#B0B0B0"/>
<path transform="translate(722,292)" d="m0 0h27l17 3 16 6 15 9 9 8 10 13 8 16 4 15 1 6v21l-3 16-5 13-6 11-7 9-8 8-14 9-10 5-17 5-20 2-21-1-18-4-12-5-14-8-9-8-9-11-8-14-5-16-2-12v-18l4-19 7-16 10-14 8-8 10-7 16-8 13-4zm1 21-16 4-11 5-11 8-8 9-7 14-3 11v31l4 13 6 11 9 10 11 8 12 5 23 4 18-1 15-4 12-6 11-9 7-9 5-10 4-17v-20l-3-15-8-16-9-10-14-9-18-6-7-1z" fill="#B1B1B1"/>
<path transform="translate(532,292)" d="m0 0h28l19 3 19 7 12 8 6 5 6 9v7l-5 6-2 1h-8l-7-4-9-8-10-6-13-4-12-2h-19l-13 2-15 5-9 6-6 5-7 11-5 12-3 15v18l3 15 4 10 6 10 9 9 11 6 12 4 24 3 12-1 17-4 16-8 12-10 6-3 6 1 5 3 3 9-6 8-12 11-21 9-13 4-10 2-23 1-21-2-12-4-23-11-7-7-9-11-7-12-6-17-2-13v-22l3-16 6-16 8-12 9-10 14-10 16-7 16-4z" fill="#B1B1B1"/>
<path transform="translate(1340,292)" d="m0 0h28l18 3 15 5 14 8 10 9 4 8v7l-5 6h-9l-5-3-13-10-14-7-12-3-7-1h-24l-14 3-12 5-11 8-7 9-6 13-3 13-1 17 3 18 3 10 6 11 8 9 11 7 13 5 9 2 9 1h13l17-3 13-5 11-6 12-10 4-2 7 1 6 5 1 8-7 8-7 6-15 9-15 6-18 4-12 1h-11l-17-2-15-4-17-8-10-8-10-10-7-11-5-10-4-16-1-6v-26l3-15 5-13 6-10 9-11 8-7 11-7 13-6 16-4z" fill="#B1B1B1"/>
<path transform="translate(1658,223)" d="m0 0h8l5 3 3 3 1 3 1 63h41l12 1 5 4 1 2v7l-4 5-6 2-49 1v108l3 10 4 5 8 4 5 1 13-1 10-5 11-9 3-2h8l6 5 1 7-6 9-8 7-13 7-11 3-15 1-13-2-14-7-6-5-7-11-4-12-1-9v-105h-23l-8-4-1-2v-7l4-6 2-1 25-1 1-62 4-8z" fill="#B0AFAF"/>
<path transform="translate(362,407)" d="m0 0 9 1 52 18 19 7 4 5-1 4-4 4-16 6h-3l7 8 19 19 1 7-7 8-6 5-5-1-16-16-7-6-2-3-3-1-3 11-5 10-5 2-5-2-8-20-10-28-4-13-5-14-1-6z" fill="#716C67"/>
<path transform="translate(217,291)" d="m0 0 11 2 8 6 4 6 2 6v8l-5 10-4 5-8 4h-13l-8-4-6-7-3-7v-9l3-8 4-5 8-5z" fill="#929190"/>
<path transform="translate(277,292)" d="m0 0h11l8 4 5 5 4 7 1 9-3 10-5 6-6 4-8 2-9-1-7-4-6-7-3-7v-10l5-10 6-5z" fill="#929190"/>
<path transform="translate(279,354)" d="m0 0 10 1 9 5 6 8 2 12-3 9-7 8-5 3-4 1h-10l-10-5-6-8-3-10 2-9 6-8 7-5z" fill="#929190"/>
<path transform="translate(216,354)" d="m0 0 9 1 8 4 6 8 3 7v8l-6 12-9 6-4 1h-10l-9-4-7-9-2-6v-9l5-10 7-6z" fill="#929190"/>
<path transform="translate(212,419)" d="m0 0h13l6 4 4 5 2 5v7l-3 8-4 5-11 4-6-1-8-5-4-5-1-3v-11l3-6 7-6z" fill="#C8C6C4"/>
<path transform="translate(215,234)" d="m0 0h7l8 4 5 6 2 11-3 9-7 6-6 2-9-1-7-4-4-5-1-3v-11l4-8 8-5z" fill="#C8C6C4"/>
<path transform="translate(152,235)" d="m0 0h11l8 4 5 8v12l-6 9-8 4-11-1-6-4-4-5-2-4v-9l4-8 6-5z" fill="#B0B0B0"/>
<path transform="translate(337,235)" d="m0 0h11l6 3 6 8 1 2v10l-4 7-6 5-6 2-10-1-7-5-4-8v-11l4-7 6-4z" fill="#B0B0B0"/>
<path transform="translate(282,234)" d="m0 0 8 2 6 4 5 9v8l-4 8-6 5-5 2h-7l-8-3-5-6-2-5v-10l4-8 8-5z" fill="#C8C6C4"/>
<path transform="translate(277,419)" d="m0 0h11l9 6 3 5 1 11-4 8-7 6-3 1h-10l-6-3-5-6-2-4v-11l5-8 5-4z" fill="#C8C6C4"/>
<path transform="translate(153,419)" d="m0 0h11l6 4 5 6 1 3v11l-4 7-5 4-6 2-10-1-5-3-5-5-2-5v-8l4-9 7-5z" fill="#B1B1B1"/>
<path transform="translate(338,295)" d="m0 0h10l8 5 4 6 1 3v9l-4 8-8 5h-14l-7-5-5-10 2-10 6-8z" fill="#C8C6C4"/>
<path transform="translate(154,359)" d="m0 0h8l7 3 6 7 1 3v11l-5 8-3 3-5 2h-9l-8-4-5-6-2-6 1-9 4-6 6-5z" fill="#C8C6C4"/>
<path transform="translate(154,295)" d="m0 0h9l6 3 6 8 1 3v10l-5 8-5 4-11 1-8-3-6-7-2-5v-9l4-6 6-5z" fill="#C8C6C4"/>
<path transform="translate(339,359)" d="m0 0h7l8 3 5 6 2 5v9l-3 6-6 6-6 2-11-1-9-8-2-5v-9l4-8 7-5z" fill="#C8C6C4"/>
<path transform="translate(338,419)" d="m0 0h9l6 3 6 8 1 3v11l-3 6-5 4-6 2h-8l-8-4-4-5-2-4v-11l3-6 8-6z" fill="#B0B0B0"/>
<path transform="translate(1779,203)" d="m0 0h9l6 5 2 6v106h-1l-1-6-1-84-2-14-5-7h-5l-5 4-2 6v112l-1 34v88l3 7-1 3-3-5-1-4v-241l2-5z" fill="#C8C6C4"/>
<path transform="translate(1658,223)" d="m0 0h8l5 3 3 3 1 3 1 63h41l12 1 5 4 1 2v7l-4 5-5 1 1-2 5-3-1-9-5-2h-47l-5-3-3-18v-29l-2-17-3-3-5-1-7 2-1 4v16l-1 8v26l-1 12-2 2-14 1h-7l-5 4 1 9 4 1 17 1 5 1v1h-23l-8-4-1-2v-7l4-6 2-1 25-1 1-62 4-8z" fill="#C8C6C4"/>
<path transform="translate(215,192)" d="m0 0 8 1 5 3 4 5v11l-5 5-8 4-7-1-7-8-1-9 4-7z" fill="#B0B0B0"/>
<path transform="translate(278,192)" d="m0 0h7l6 3 4 5 1 3v7l-4 6-6 4-6 1-6-3-5-6-1-9 3-6 5-4z" fill="#B0B0B0"/>
<path transform="translate(215,470)" d="m0 0 9 1 5 4 3 6v7l-4 7-8 4-6-1-6-4-4-6v-7l5-8z" fill="#B0B0B0"/>
<path transform="translate(388,299)" d="m0 0 9 2 5 6 1 2v9l-4 6-6 3h-8l-6-4-3-5-1-6 3-7 6-5z" fill="#B1B1B1"/>
<path transform="translate(387,363)" d="m0 0 8 1 6 5 2 4v8l-5 8-5 2h-9l-6-5-3-9 2-7 7-6z" fill="#B0B0B0"/>
<path transform="translate(279,470)" d="m0 0 9 1 5 4 3 6v7l-4 6-6 4h-9l-7-6-1-2v-11l4-6z" fill="#B1B1B0"/>
<path transform="translate(110,363)" d="m0 0 6 1 5 3 4 7-1 9-5 6-4 2h-8l-5-3-4-5-1-9 5-8z" fill="#B1B1B1"/>
<path transform="translate(106,300)" d="m0 0h10l7 6 2 4v6l-5 8-5 3h-9l-6-4-3-7v-6l5-8z" fill="#B0B0B0"/>
<path transform="translate(1854,292)" d="m0 0h24l18 4 12 6 10 9 7 9 6 13 3 15 1 16v81l-1 8h-1l-1-42-2-57-1-11-3-11-8-16-4-5v-2l-5-2-3-3-9-5-9-3-9-1h-30l-1-2z" fill="#C8C6C4"/>
<path transform="translate(995,334)" d="m0 0h2l7 8 4 9 4 12 1 4v22l-2 12-3 9-6 10-2 5-12 9h-2l-1 3h-4l-1 3-11 4-10 2-16 2h-14l-11-1-3-2-9-2-6-2v-2l-4-1-5-4v-2h-3l-3-3v-2h-2l-6-9v-2h2l6 9 8 7 15 8 16 4 10 1h10l16-2 13-4 12-6 11-9 7-10 5-12 2-10v-26l-4-13-6-11-5-7z" fill="#C8C6C4"/>
<path transform="translate(1327,314)" d="m0 0h2v2l-13 5-11 7-7 8-8 16-3 13-1 17 3 18 3 10 6 11 8 9 11 7 13 5v1l-8-1-10-5-8-6-9-10-8-16-2-9-2-14-1-6v-9l2-16 7-14 4-5h2v-3l11-7 12-6z" fill="#C8C6C4"/>
<path transform="translate(1019,203)" d="m0 0h9l6 4 2 4 1 22-1 108h-1l-1-11v-68l-2-44-2-7-1-3-8-1-4 4h-2l-2 5h-1l1-7 4-5z" fill="#C8C6C4"/>
<path transform="translate(1557,297)" d="m0 0 6 1 12 6 10 8 6 7 6 11 3 13 1 10v102l-1 4h-2l1-29v-64l-2-21-4-14-5-10-3-3v-2h-2l-3-3v-2l-4-2-5-4-14-7z" fill="#C8C6C4"/>
<path transform="translate(152,235)" d="m0 0h11l8 4 5 8-1 2-4-6v-2l-6-1h-10l-6 3-5 3-1 4 1 1 2 10 1 4 4 1 3 3h10l6-4 5-10 1 4-6 9-8 4-11-1-6-4-4-5-2-4v-9l4-8 6-5z" fill="#C8C6C4"/>
<path transform="translate(477,386)" d="m0 0 2 2 3 15 4 10 6 10 9 9 11 6 12 4 24 3 12-1 14-3 3 1-9 3-10 2-19 1-5-1-11-1-11-3-4-2v-2l-5-1-1-3-3-1-6-7-7-7-5-11-4-17z" fill="#C8C6C4"/>
<path transform="translate(1675,315)" d="m0 0h9v1l-8 1v108l3 10 4 5 3 2-1 2-8-7-4-13-1-100z" fill="#C8C6C4"/>
<path transform="translate(337,235)" d="m0 0h11l6 3 6 8 1 2v10l-4 7-6 5-6 2-10-1-7-5-4-8v-11l4-7 6-4zm1 2-8 4-4 5v8l5 10 4 2 1 3 2 1h8l7-3 6-8v-7l-3-9-5-4-8-2z" fill="#C8C6C4"/>
<path transform="translate(1651,246)" d="m0 0h2l-1 12v26l-1 12-2 2-14 1h-7l-5 4 1 9 4 1 17 1 5 1v1h-23l-8-4-1-2v-7l4-6 2-1 25-1 1-48z" fill="#C8C6C4"/>
<path transform="translate(667,399)" d="m0 0h2l4 11 7 12 8 8 11 7 14 5 19 3 18-1 15-4 8-3-1 3-18 6-14 2h-11l-5-1-13-2-8-3-8-4-12-9-5-5-1-4h-2l-6-12z" fill="#C8C6C4"/>
<path transform="translate(215,192)" d="m0 0 8 1 5 3 4 5v2h-2l-4-5-9-1-7 2-1 5 1 10h2l3 3 4 1 7-3 3-3 3-4-1 5-5 5-7 3-7-1-7-8-1-9 4-7z" fill="#C8C6C4"/>
<path transform="translate(1674,295)" d="m0 0h43l12 1 5 4 1 2v7l-4 5-5 1 1-2 5-3-1-9-5-2h-47l-5-3z" fill="#C8C6C4"/>
<path transform="translate(278,192)" d="m0 0h7l6 3 4 5 1 3v7l-2 2-1-9-2-4-5-2h-7l-6 4-1 1 1 7 3 6v2l10 1v2l-6 1-6-3-5-6-1-9 3-6 5-4z" fill="#C8C6C4"/>
<path transform="translate(215,470)" d="m0 0 9 1 5 4 3 6v7l-4 7-8 4h-3v-2l5-2h3v-2l4-4v-8l-3-4v-2l-9-1-5 2-4 1-2 10h2v2l4 4v2l4 1v2l-6-2-5-6-1-2v-7l5-8z" fill="#C8C6C4"/>
<path transform="translate(1063,399)" d="m0 0 2 3 6 18 6 11 1 3 3 1v2l4 2 8 8 6 3 11 7 14 5-4 1-16-6-18-11-12-15-7-14-4-13z" fill="#C8C6C4"/>
<path transform="translate(460,416)" d="m0 0h2l6 12 5 7 2 1v2l4 1 7 6 5 5 5 3 4 1v2l10 3 8 3 8 2v1h-7l-12-4-23-11-7-7-9-11-7-12z" fill="#C8C6C4"/>
<path transform="translate(153,419)" d="m0 0 4 1-2 2-4 1-7 8h-2l3 12 5 8 4 2h10l1 2-10 1-8-3-6-6-2-5v-8l4-9 7-5z" fill="#C8C6C4"/>
<path transform="translate(995,334)" d="m0 0h2l7 8 4 9 4 12 1 4v22l-2 12-3 9-6 10-1 3-3-1 8-14 4-16v-26l-4-13-6-11-5-7z" fill="#C8C6C4"/>
<path transform="translate(1501,356)" d="m0 0h28l13 2 15 5 13 8 4 4-4-1-12-6-13-6-12-3-20-1h-14z" fill="#C8C6C4"/>
<path transform="translate(1876,313)" d="m0 0 9 2 10 5 9 10 7 15 1 30-1 30h-1l-1-47-2-14-4-11-7-9-8-5-12-5z" fill="#C8C6C4"/>
<path transform="translate(1139,292)" d="m0 0h30l17 3v2l-15-2h-33l-14 2-5 2-7 1-1 2-5 1-1-2 16-6z" fill="#C8C6C4"/>
<path transform="translate(106,300)" d="m0 0h10l4 4-8-2h-5l-5 4-2 8 1 5h2l4 4v2l9-1 5-5 1-2v-9h2l1 2v6l-5 8-5 3h-9l-6-4-3-7v-6l5-8z" fill="#C8C6C4"/>
<path transform="translate(1089,408)" d="m0 0 2 3 6 11 10 10 16 8 16 4 10 1 1 2-6 1-12-2-12-4-10-4-4-4-8-7-5-6v-3h-2l-2-5z" fill="#C8C6C4"/>
<path transform="translate(901,297)" d="m0 0h2v2l-5 3-7 3-5 3h-2v2l-8 5h-2l-1 3h-2v2l-3 3h-2l-2 4-7 11-4 9-2 1 3-9 8-14 8-9 11-9 15-8z" fill="#C8C6C4"/>
<path transform="translate(279,470)" d="m0 0 9 1 5 4 3 6-1 2-4-6-5-3-9 1-1 2-3 1-2 8v2h2v5l4 1 5 4h-5l-7-6-1-2v-11l4-6z" fill="#C8C6C4"/>
<path transform="translate(1541,313)" d="m0 0 12 3 11 6 1 3 3 1 6 8v3h2l1 4-1 35-2-1v-30l-3-10-9-10-8-6-14-4z" fill="#C8C6C4"/>
<path transform="translate(1477,437)" d="m0 0 5 2 11 4 10 2h26l14-2v2l-17 3h-26l-15-4-8-6z" fill="#C8C6C4"/>
<path transform="translate(1208,304)" d="m0 0 10 5 12 11 8 11 5 14 1 4v18h-2v-14l-3-13-6-12-1-3h-2l-7-8-5-5-10-6z" fill="#C8C6C4"/>
<path transform="translate(110,363)" d="m0 0 6 1 2 2-11 2-4 1-2 7 1 6 3 5 4 2 10-1-4 3h-8l-5-3-4-5-1-9 5-8z" fill="#C8C6C4"/>
<path transform="translate(1490,377)" d="m0 0h6v1l-10 3-10 6-7 9-2 6-1 14 3 10 4 6 4 5-5-2v-2h-2l-5-10-2-11 1-10 4-9 8-9 10-6z" fill="#C8C6C4"/>
<path transform="translate(1733,428)" d="m0 0h8l2 2-2 1h-6l-11 7-8 7-13 3h-10l-6-3 1-2 8 2 13-1 10-5 11-9z" fill="#C8C6C4"/>
<path transform="translate(1650,412)" d="m0 0h1l4 23 4 9 4 6 2 4 4 1 7 5 14 5-4 1-11-4-11-7-6-8-5-10-2-7-1-9z" fill="#C8C6C4"/>
<path transform="translate(338,419)" d="m0 0h9l6 3 6 8-1 3-5-8-7-1-1-2-7 2-6 3h-3v3l-4 1 2-5 8-6z" fill="#C8C6C4"/>
<path transform="translate(777,300)" d="m0 0 5 1 15 9 9 8 10 13 6 12-2 1-7-13-6-7v-2h-2l-4-5-10-8-8-5-6-3z" fill="#C8C6C4"/>
<path transform="translate(1837,296)" d="m0 0 2 1-4 3h-2v2l-6 1v2l-8 4-2 2-9 5-7 7-2-1 12-12 11-7 12-6z" fill="#C7C5C3"/>
<path transform="translate(722,292)" d="m0 0h27l17 3 11 4-4 1-14-4-7-1h-31l-6-1v-1z" fill="#C7C5C3"/>
<path transform="translate(1854,292)" d="m0 0h24l18 4 6 3 1 2-11-3-4-2-9-1h-30l-1-2z" fill="#C8C6C4"/>
<path transform="translate(460,341)" d="m0 0 2 1-5 17-2 11v10l1 18-2-1-1-7v-22l3-16z" fill="#C8C6C4"/>
<path transform="translate(682,305)" d="m0 0v3l-3 3-7 4h-2l-1 3h-2l-2 4-5 6-2 4h-2l-4 8-2-1 6-10 8-10 11-10z" fill="#C8C6C4"/>
<path transform="translate(401,309)" d="m0 0h2v9l-4 6-6 3h-8l-6-4-3-5-1-6 2-1 2 6 4 5 3 2h8l5-3 2-9z" fill="#C8C6C4"/>
<path transform="translate(387,363)" d="m0 0 8 1 6 5 2 4v8h-2l-2-10-5-4-6-1-8 4-3 8-2-2 3-7 6-5z" fill="#C8C6C4"/>
<path transform="translate(656,428)" d="m0 0 13 13 10 8 3 1v2l5 2 9 4v2l-6-2-16-9-9-8-9-11z" fill="#C8C6C4"/>
<path transform="translate(925,292)" d="m0 0h25l17 3 3 1v2l-6-1-8-2-31-1z" fill="#C8C6C4"/>
<path transform="translate(774,322)" d="m0 0 5 2 9 7 8 9 6 12 2 11h-2l-4-13-6-11-8-9-10-7z" fill="#C8C6C4"/>
<path transform="translate(1278,433)" d="m0 0 7 6 9 8 11 6 10 6-2 1-16-8-9-7-10-10z" fill="#C8C6C4"/>
<path transform="translate(1331,443)" d="m0 0 17 2h13l12-1v2l-15 2-19-1-8-2z" fill="#C8C6C4"/>
<path transform="translate(324,432)" d="m0 0 2 3 1 4 3 9 2 1 3 3 7 2h4v2h-8l-8-4-4-5-2-4z" fill="#C8C6C4"/>
<path transform="translate(376,379)" d="m0 0 2 1v2l2 1 6 5 4 1 7-3 3-4 2 1-4 6-5 2h-9l-6-5-2-4z" fill="#C8C6C4"/>
<path transform="translate(1475,362)" d="m0 0v3l-5 1-1 2-4 1-4 5-4 1-7 9h-2l2-4 6-7 10-7z" fill="#C7C5C3"/>
<path transform="translate(850,411)" d="m0 0h2l5 12 7 11 10 11h-3l-7-7-9-14-5-11z" fill="#C8C6C4"/>
<path transform="translate(1219,352)" d="m0 0 2 3-1 8-3 5-6 3h-12l-2-2 13-1 6-3 2-4z" fill="#C8C6C4"/>
<path transform="translate(1418,419)" d="m0 0 7 1 1 2h-8l-5 3-11 9-3-1 9-7 8-6z" fill="#C8C6C4"/>
<path transform="translate(1576,453)" d="m0 0 3 4v3h3l3 3 9 1 4-2-1 3-2 1h-11l-7-6z" fill="#C8C6C4"/>
<path transform="translate(901,297)" d="m0 0h2v2l-5 3-7 3-5 3h-2v2h-3l2-4 16-8z" fill="#C7C5C3"/>
<path transform="translate(1571,444)" d="m0 0 2 1-9 8-16 8h-2v-2l9-4 6-2v-2l9-6z" fill="#C8C6C4"/>
<path transform="translate(1223,422)" d="m0 0 7 1 6 7-1 2-3-3v-2h-2v-2l-7-1-1 2-9 5-2-1 10-7z" fill="#C8C6C4"/>
<path transform="translate(608,420)" d="m0 0h2v2l-4 1v2l-9 7-9 6h-2v-2l11-7 8-7z" fill="#C8C6C4"/>
<path transform="translate(1087,313)" d="m0 0 2 1-6 7-1 3h-2l-2 4-5 6-1-2 6-9z" fill="#C8C6C4"/>
<path transform="translate(1010,398)" d="m0 0 1 3-3 9-6 10-1 3-3-1 8-14z" fill="#C7C5C3"/>
<path transform="translate(1574,418)" d="m0 0 2 1-4 8-5 7-7 3 2-4 7-6z" fill="#C8C6C4"/>
<path transform="translate(1316,297)" d="m0 0h2v2l-7 3-5 3-7 3-4 1 4-4z" fill="#C8C6C4"/>
<path transform="translate(1854,292)" d="m0 0h16l-1 2-13 1h-7l-1-2z" fill="#C6C4C2"/>
<path transform="translate(1744,431)" d="m0 0 4 4-1 7-7 9-3 2 2-4 6-8v-7z" fill="#C8C6C4"/>
<path transform="translate(1815,307)" d="m0 0m-1 1 2 3-10 7-5 5-2-1 12-12z" fill="#C8C6C4"/>
<path transform="translate(611,419)" d="m0 0 6 1 5 3 3 9-3 3v-9h-2l-4-4-5-1z" fill="#C8C6C4"/>
<path transform="translate(1933,455)" d="m0 0 1 4-6 7h-9v-1l9-3z" fill="#C8C6C4"/>
<path transform="translate(1547,379)" d="m0 0 8 1 12 7 2 3-2 1v-2l-16-8z" fill="#C8C6C4"/>
<path transform="translate(1104,302)" d="m0 0 1 2-4 4-7 3-4 1 5-5z" fill="#C8C6C4"/>
<path transform="translate(1652,230)" d="m0 0 1 4-1 12-2 1v-14z" fill="#C2C0BF"/>
<path transform="translate(359,410)" d="m0 0 1 4 1 6 2 6-1 4-5-15 1-4z" fill="#9D9C9B"/>
<path transform="translate(682,305)" d="m0 0v3l-3 3-7 4-2-1 8-7z" fill="#C7C5C3"/>
<path transform="translate(1013,455)" d="m0 0 2 3 4 5 4 2-4 1-5-4-2-6z" fill="#C8C6C4"/>
<path transform="translate(479,314)" d="m0 0 1 3-6 7-4 1 6-8z" fill="#C8C6C4"/>
</svg>
